<svg version="1.1" viewBox="0.0 0.0 384.0 384.0" fill="none" stroke="none" stroke-linecap="square" stroke-miterlimit="10" xmlns:xlink="http://www.w3.org/1999/xlink" xmlns="http://www.w3.org/2000/svg"><clipPath id="p.0"><path d="m0 0l384.0 0l0 384.0l-384.0 0l0 -384.0z" clip-rule="nonzero"/></clipPath><g clip-path="url(#p.0)"><path fill="#000000" fill-opacity="0.0" d="m0 0l384.0 0l0 384.0l-384.0 0z" fill-rule="evenodd"/><path fill="#000000" fill-opacity="0.3408" d="m54.49344 304.9834l0 0c0 -19.96051 61.559082 -36.141724 137.49606 -36.141724l0 0c75.93698 0 137.49606 16.181213 137.49606 36.141724l0 0c0 19.96054 -61.559082 36.141754 -137.49606 36.141754l0 0c-75.93698 0 -137.49606 -16.181213 -137.49606 -36.141754z" fill-rule="evenodd"/><path fill="#ff9900" d="m54.499996 180.37762l0 0c0 -75.94113 61.56245 -137.50359 137.50359 -137.50359l0 0c36.468216 0 71.442795 14.486942 97.22972 40.273865c25.786926 25.786926 40.273865 60.761505 40.273865 97.22972l0 0c0 75.94113 -61.56247 137.50357 -137.50359 137.50357l0 0c-75.94114 0 -137.50359 -61.56244 -137.50359 -137.50357z" fill-rule="evenodd"/><path stroke="#000000" stroke-width="8.0" stroke-linejoin="round" stroke-linecap="butt" d="m54.499996 180.37762l0 0c0 -75.94113 61.56245 -137.50359 137.50359 -137.50359l0 0c36.468216 0 71.442795 14.486942 97.22972 40.273865c25.786926 25.786926 40.273865 60.761505 40.273865 97.22972l0 0c0 75.94113 -61.56247 137.50357 -137.50359 137.50357l0 0c-75.94114 0 -137.50359 -61.56244 -137.50359 -137.50357z" fill-rule="evenodd"/><path fill="#000000" fill-opacity="0.0782" d="m194.92859 315.32007l0 0c-77.55657 0 -140.42859 -60.415787 -140.42859 -134.94244c0 -74.52666 62.87202 -134.94244 140.42859 -134.94244l0 0c-45.308624 31.155975 -72.190125 81.40461 -72.190125 134.94244c0 53.53784 26.8815 103.78647 72.190125 134.94244z" fill-rule="evenodd"/><path fill="#eeeeee" d="m96.180984 150.12498l0 0c-2.7038422 -13.744324 3.250885 -27.97136 14.991608 -35.817932c11.740723 -7.8465652 26.855469 -7.7007065 38.05284 0.36722565c11.197357 8.067932 16.177002 22.40049 12.536713 36.083595z" fill-rule="evenodd"/><path stroke="#000000" stroke-width="8.0" stroke-linejoin="round" stroke-linecap="butt" d="m96.180984 150.12498l0 0c-2.7038422 -13.744324 3.250885 -27.97136 14.991608 -35.817932c11.740723 -7.8465652 26.855469 -7.7007065 38.05284 0.36722565c11.197357 8.067932 16.177002 22.40049 12.536713 36.083595z" fill-rule="evenodd"/><path fill="#eeeeee" d="m216.69295 149.47978l0 0c-2.4320374 -13.800247 3.8009338 -27.910477 15.692108 -35.523857c11.89119 -7.6133804 26.997696 -7.16584 38.03206 1.1267242c11.034363 8.292564 15.729767 22.726555 11.821075 36.33895z" fill-rule="evenodd"/><path stroke="#000000" stroke-width="8.0" stroke-linejoin="round" stroke-linecap="butt" d="m216.69295 149.47978l0 0c-2.4320374 -13.800247 3.8009338 -27.910477 15.692108 -35.523857c11.89119 -7.6133804 26.997696 -7.16584 38.03206 1.1267242c11.034363 8.292564 15.729767 22.726555 11.821075 36.33895z" fill-rule="evenodd"/></g></svg>